<?xml version="1.0" encoding="utf-8"?>
<!-- Generator: Adobe Illustrator 17.1.0, SVG Export Plug-In . SVG Version: 6.00 Build 0)  -->
<!DOCTYPE svg PUBLIC "-//W3C//DTD SVG 1.1//EN" "http://www.w3.org/Graphics/SVG/1.1/DTD/svg11.dtd">
<svg version="1.1" id="Capa_1" xmlns="http://www.w3.org/2000/svg" xmlns:xlink="http://www.w3.org/1999/xlink" x="0px" y="0px"
	 viewBox="0 90 612 611.9" enable-background="new 0 90 612 611.9" xml:space="preserve">
<g>
	<path fill="#E41B47" d="M306,90C137,90,0,227,0,396S137,702,306,702s306-137,306-306S475,90,306,90z M306,672.4
		C153.8,672.4,29.7,548.2,29.7,396S153.8,119.7,306,119.7S582.3,243.9,582.3,396S459,672.4,306,672.4z M425.3,375.2
		c-0.8,0-0.8-0.8-1.6-0.8l-169.8-97.7c-5.6-3.2-10.4-4.8-16-4.8c-11.2,0-23.2,8.8-23.2,28v192.2c0.8,19.2,12,28,24,28
		c5.6,0,11.2-1.6,16.8-4.8l162.6-93.7c12-6.4,17.7-15.2,18.4-24.8C437.3,392.8,435.8,383.2,425.3,375.2z M244.3,488.1V305.5
		l157.8,91.3L244.3,488.1z"/>
</g>
</svg>
